<?xml version="1.0" encoding="iso-8859-1"?>
<!-- Generator: Adobe Illustrator 19.0.0, SVG Export Plug-In . SVG Version: 6.00 Build 0)  -->
<svg version="1.1" id="Capa_1" xmlns="http://www.w3.org/2000/svg" xmlns:xlink="http://www.w3.org/1999/xlink" x="0px" y="0px"
	 viewBox="0 0 512 512" style="enable-background:new 0 0 512 512;" xml:space="preserve">
<path style="fill:#666D7F;" d="M256,0C114.508,0,0,114.497,0,256c0,141.493,114.497,256,256,256c141.492,0,256-114.497,256-256
	C512,114.507,397.503,0,256,0z"/>
<path style="fill:#585969;" d="M256,0v512c141.492,0,256-114.497,256-256C512,114.507,397.503,0,256,0z"/>
<path style="fill:#FFEBF4;" d="M255.996,100C169.98,100,100,169.981,100,256c0,85.979,69.943,156,155.996,156
	c0.114,0,0.227-0.004,0.341-0.004c0.027,0,0.054,0.004,0.081,0.004c0.046,0,0.093-0.006,0.139-0.007
	c85.574-0.303,155.129-69.862,155.429-155.439c0.001-0.07,0.003-0.139,0.003-0.208c0-0.115,0.004-0.23,0.004-0.345
	C411.993,169.981,342.013,100,255.996,100z M130.896,241c7.44-62.431,60.701-111,125.101-111s117.661,48.569,125.101,111
	C374.421,241,138.912,241,130.896,241z"/>
<path style="fill:#DECEE0;" d="M256,100v30c64.398,0.002,117.657,48.57,125.097,111c-3.347,0-64.217,0-125.097,0v171
	c0.113,0,0.225-0.004,0.338-0.004c0.027,0,0.054,0.004,0.081,0.004c0.046,0,0.093-0.006,0.139-0.007
	c85.574-0.303,155.129-69.862,155.429-155.439c0.001-0.07,0.003-0.139,0.003-0.208c0-0.115,0.004-0.23,0.004-0.345
	C411.993,169.983,342.015,100.002,256,100z"/>
<g>
</g>
<g>
</g>
<g>
</g>
<g>
</g>
<g>
</g>
<g>
</g>
<g>
</g>
<g>
</g>
<g>
</g>
<g>
</g>
<g>
</g>
<g>
</g>
<g>
</g>
<g>
</g>
<g>
</g>
</svg>
