<svg height="32pt" viewBox="-32 0 511 512" width="32pt" xmlns="http://www.w3.org/2000/svg"><path d="m256.5 512h-64.265625c-8.285156 0-15-6.714844-15-15v-80.332031c0-8.285157 6.714844-15 15-15h64.265625c8.285156 0 15 6.714843 15 15v80.332031c0 8.285156-6.714844 15-15 15zm0 0" fill="#fba300"/><path d="m256.5 401.667969h-32.132812v110.332031h32.132812c8.285156 0 15-6.714844 15-15v-80.332031c0-8.285157-6.714844-15-15-15zm0 0" fill="#ff772c"/><path d="m397.40625 196.367188-27.644531 207.285156c-.992188 7.453125-7.347657 13.015625-14.867188 13.015625h-261.054687c-7.519532 0-13.875-5.5625-14.871094-13.015625l-27.640625-207.285156c-.621094-4.632813.957031-9.285157 4.261719-12.589844l158.167968-158.171875c5.859376-5.859375 15.355469-5.859375 21.214844 0l158.171875 158.171875c3.304688 3.304687 4.878907 7.957031 4.261719 12.589844zm0 0" fill="#f3eee9"/><path d="m354.894531 416.667969c7.515625 0 13.875-5.5625 14.867188-13.015625l27.644531-207.285156c.617188-4.632813-.957031-9.285157-4.261719-12.589844l-158.171875-158.171875c-2.929687-2.929688-6.769531-4.390625-10.605468-4.390625v395.457031h130.527343zm0 0" fill="#e9dfda"/><path d="m422.625 234.472656-198.257812-198.261718-198.261719 198.261718c-5.855469 5.855469-15.355469 5.855469-21.210938 0-5.859375-5.859375-5.859375-15.355468 0-21.214844l208.863281-208.863281c5.859376-5.859375 15.355469-5.859375 21.214844 0l208.867188 208.863281c5.855468 5.859376 5.855468 15.355469 0 21.214844-5.859375 5.859375-15.355469 5.855469-21.214844 0zm0 0" fill="#ff4a4a"/><path d="m422.625 234.472656c5.859375 5.855469 15.355469 5.859375 21.214844 0s5.859375-15.355468 0-21.214844l-208.867188-208.863281c-2.929687-2.929687-6.765625-4.394531-10.605468-4.394531v36.210938zm0 0" fill="#c7001c"/><path d="m70.132812 337.398438 8.835938 66.253906c.996094 7.453125 7.351562 13.015625 14.871094 13.015625h261.054687c7.515625 0 13.875-5.5625 14.867188-13.015625l8.835937-66.253906zm0 0" fill="#dad0cb"/><path d="m224.367188 416.667969h130.527343c7.519531 0 13.875-5.5625 14.867188-13.015625l8.835937-66.253906h-154.230468zm0 0" fill="#c6bcb7"/><path d="m385.035156 431.667969h-321.335937c-8.285157 0-15-6.71875-15-15 0-8.285157 6.714843-15 15-15h321.335937c8.28125 0 15 6.714843 15 15 0 8.28125-6.71875 15-15 15zm0 0" fill="#784132"/><path d="m385.035156 401.667969h-160.667968v30h160.667968c8.28125 0 15-6.71875 15-15 0-8.285157-6.71875-15-15-15zm0 0" fill="#61362b"/><path d="m224.367188 303.132812c-34.851563 0-63.199219-28.351562-63.199219-63.199218s28.351562-63.199219 63.199219-63.199219c34.847656 0 63.199218 28.351563 63.199218 63.199219s-28.351562 63.199218-63.199218 63.199218zm0 0" fill="#784132"/><path d="m287.566406 239.933594c0-34.847656-28.351562-63.199219-63.199218-63.199219v126.398437c34.847656 0 63.199218-28.351562 63.199218-63.199218zm0 0" fill="#61362b"/></svg>