<svg width="36" height="36" viewBox="0 0 36 36" fill="none" xmlns="http://www.w3.org/2000/svg">
                                    
<path fill-rule="evenodd" clip-rule="evenodd" d="M36 18C36 27.9411 27.9411 36 18 36C8.05888 36 0 27.9411 0 18C0 8.05888 8.05888 0 18 0C27.9411 0 36 8.05888 36 18ZM18.0837 20.5581C21.4013 15.8665 21.5477 13.0231 18.0837 7.99979C14.5535 13.1303 15.0086 15.8497 18.0837 20.5581ZM16.5088 26.6691C17.0361 20.9472 15.7413 18.4115 10.2296 15.7932C9.7377 22.0015 11.4915 24.1291 16.5088 26.6691ZM19.6809 26.6691C19.1536 20.9472 20.4485 18.4115 25.9601 15.7932C26.452 22.0015 24.6982 24.1291 19.6809 26.6691Z" fill="black"></path>
                               
                               
                               
</svg>