<svg height="512pt" viewBox="0 -58 512 511" width="512pt" xmlns="http://www.w3.org/2000/svg"><path d="m492 275.832031h-19.273438v-23.472656c0-65.527344-29.996093-130.28125-85.800781-172.527344h105.074219c11.046875 0 20-8.953125 20-20s-8.953125-20-20-20h-176.667969v-19.332031c0-11.046875-8.953125-20-20-20h-78.667969c-11.042968 0-20 8.953125-20 20v19.332031h-176.664062c-11.046875 0-20 8.953125-20 20s8.953125 20 20 20h105.550781c-55.242187 41.898438-85.644531 106.34375-85.644531 172.40625v23.59375h-19.332031c-11.046875 0-20 8.953125-20 20v78.667969c0 11.046875 8.953125 20 20 20h78.667969c11.042968 0 20-8.953125 20-20v-78.667969c0-11.046875-8.957032-20-20-20h-19.335938v-23.59375c0-74.195312 46.5-140.726562 116.757812-166.046875v12.972656c0 11.046876 8.957032 20 20 20h78.667969c11.046875 0 20-8.953124 20-20v-13.078124c70.613281 25.140624 117.394531 91.859374 117.394531 166.273437v23.472656h-19.394531c-11.046875 0-20 8.953125-20 20v78.667969c0 11.046875 8.953125 20 20 20h78.667969c11.046875 0 20-8.953125 20-20v-78.667969c0-11.042969-8.953125-20-20-20zm-412.757812 78.667969h-38.667969v-38.667969h38.667969zm157.425781-275.332031v-19.246094c0-.050781 0-.097656 0-.148437v-19.273438h38.667969v19.371094.148437 19.144531h-38.667969zm235.332031 275.332031h-38.667969v-38.667969h38.667969zm0 0"/></svg>