<?xml version="1.0" encoding="UTF-8"?>
<svg width="30px" height="15px" viewBox="0 0 76 15" version="1.1" xmlns="http://www.w3.org/2000/svg" xmlns:xlink="http://www.w3.org/1999/xlink">
    <!-- Generator: Sketch 55 (78076) - https://sketchapp.com -->
    <title>Whoosh!</title>
    <desc>Created with Sketch.</desc>
    <g id="Illustration-kit" stroke="none" stroke-width="1" fill="none" fill-rule="evenodd">
        <g id="Presentation-Classic" transform="translate(-171.000000, -29.000000)" fill="#363B4A" fill-rule="nonzero">
            <path d="M186.336,30.4 L188.928,30.4 L185.112,43 L182.502,43 L180.018,34.54 L177.534,43 L174.924,43 L171.09,30.4 L173.682,30.4 L176.274,39.526 L178.902,30.4 L181.116,30.4 L183.744,39.526 L186.336,30.4 Z M195.498,33.64 C197.874,33.64 199.08,35.242 199.08,37.672 L199.08,43 L196.704,43 L196.704,38.122 C196.704,36.736 196.074,35.854 194.76,35.854 C193.428,35.854 192.564,36.898 192.564,38.5 L192.564,43 L190.188,43 L190.188,29.86 L192.564,29.86 L192.564,35.044 C193.194,34.234 194.184,33.64 195.498,33.64 Z M205.65,43.252 C202.842,43.252 200.772,41.164 200.772,38.446 C200.772,35.71 202.842,33.64 205.65,33.64 C208.458,33.64 210.51,35.71 210.51,38.446 C210.51,41.164 208.458,43.252 205.65,43.252 Z M205.65,41.092 C207.162,41.092 208.206,39.958 208.206,38.446 C208.206,36.934 207.162,35.8 205.65,35.8 C204.12,35.8 203.094,36.934 203.094,38.446 C203.094,39.958 204.12,41.092 205.65,41.092 Z M216.63,43.252 C213.822,43.252 211.752,41.164 211.752,38.446 C211.752,35.71 213.822,33.64 216.63,33.64 C219.438,33.64 221.49,35.71 221.49,38.446 C221.49,41.164 219.438,43.252 216.63,43.252 Z M216.63,41.092 C218.142,41.092 219.186,39.958 219.186,38.446 C219.186,36.934 218.142,35.8 216.63,35.8 C215.1,35.8 214.074,36.934 214.074,38.446 C214.074,39.958 215.1,41.092 216.63,41.092 Z M226.872,43.252 C224.622,43.252 222.894,41.92 222.444,40.444 L224.586,39.814 C224.892,40.678 225.756,41.326 226.962,41.326 C227.88,41.326 228.474,40.894 228.474,40.39 C228.474,39.94 228.132,39.688 227.466,39.49 L225.144,38.806 C223.848,38.428 222.894,37.672 222.894,36.376 C222.894,34.846 224.55,33.64 226.548,33.64 C228.51,33.64 230.004,34.576 230.58,35.944 L228.474,36.556 C228.15,35.98 227.484,35.494 226.53,35.494 C225.792,35.494 225.234,35.89 225.234,36.322 C225.234,36.682 225.486,36.898 225.99,37.042 L228.258,37.69 C229.626,38.086 230.814,38.644 230.814,40.282 C230.814,41.992 229.194,43.252 226.872,43.252 Z M237.942,33.64 C240.318,33.64 241.524,35.242 241.524,37.672 L241.524,43 L239.148,43 L239.148,38.122 C239.148,36.736 238.518,35.854 237.204,35.854 C235.872,35.854 235.008,36.898 235.008,38.5 L235.008,43 L232.632,43 L232.632,29.86 L235.008,29.86 L235.008,35.044 C235.638,34.234 236.628,33.64 237.942,33.64 Z M244.134,38.896 L243.81,30.4 L246.402,30.4 L246.078,38.896 L244.134,38.896 Z M245.088,43.144 C244.26,43.144 243.612,42.496 243.612,41.668 C243.612,40.894 244.26,40.264 245.088,40.264 C245.916,40.264 246.564,40.894 246.564,41.668 C246.564,42.496 245.916,43.144 245.088,43.144 Z" id="Whoosh!"></path>
        </g>
    </g>
</svg>